<?xml version="1.0" standalone="no"?>
<!DOCTYPE svg PUBLIC "-//W3C//DTD SVG 1.1//EN" "http://www.w3.org/Graphics/SVG/1.1/DTD/svg11.dtd" >
<svg xmlns="http://www.w3.org/2000/svg">
<metadata>Generated by IcoMoon</metadata>
<defs>
<font id="icomoon" horiz-adv-x="1024">
<font-face units-per-em="1024" ascent="960" descent="-64" />
<missing-glyph horiz-adv-x="1024" />
<glyph unicode="&#x20;" horiz-adv-x="512" d="" />
<glyph unicode="&#xe900;" glyph-name="archive" d="M1024 884.702c0 22.699-18.466 41.165-41.165 41.165h-941.67c-22.699 0-41.165-18.466-41.165-41.165v-197.769h51.2v-641.536c0-41.489 33.775-75.264 75.264-75.264h771.072c41.506 0 75.264 33.775 75.264 75.264v641.536h51.2v197.769zM126.464 4.267c-22.682 0-41.131 18.449-41.131 41.131v94.447c71.083-7.885 127.693-64.495 135.578-135.578h-94.447zM938.667 45.397c0-22.682-18.449-41.131-41.131-41.131h-94.447c7.885 71.083 64.495 127.693 135.578 135.578v-94.447zM938.667 174.063c-89.907-8.158-161.655-79.889-169.796-169.796h-513.741c-8.158 89.907-79.889 161.655-169.796 169.796v512.87h853.333v-512.87zM989.867 721.067h-955.733v163.635c0 3.874 3.157 7.031 7.031 7.031h941.67c3.874 0 7.031-3.157 7.031-7.031v-163.635zM170.667 806.4c0-9.426-7.641-17.067-17.067-17.067s-17.067 7.641-17.067 17.067c0 9.426 7.641 17.067 17.067 17.067s17.067-7.641 17.067-17.067zM119.467 857.6c0-9.426-7.641-17.067-17.067-17.067s-17.067 7.641-17.067 17.067c0 9.426 7.641 17.067 17.067 17.067s17.067-7.641 17.067-17.067zM221.867 857.6c0-9.426-7.641-17.067-17.067-17.067s-17.067 7.641-17.067 17.067c0 9.426 7.641 17.067 17.067 17.067s17.067-7.641 17.067-17.067zM119.467 755.2c0-9.426-7.641-17.067-17.067-17.067s-17.067 7.641-17.067 17.067c0 9.426 7.641 17.067 17.067 17.067s17.067-7.641 17.067-17.067zM221.867 755.2c0-9.426-7.641-17.067-17.067-17.067s-17.067 7.641-17.067 17.067c0 9.426 7.641 17.067 17.067 17.067s17.067-7.641 17.067-17.067zM273.067 806.4c0-9.426-7.641-17.067-17.067-17.067s-17.067 7.641-17.067 17.067c0 9.426 7.641 17.067 17.067 17.067s17.067-7.641 17.067-17.067zM375.467 806.4c0-9.426-7.641-17.067-17.067-17.067s-17.067 7.641-17.067 17.067c0 9.426 7.641 17.067 17.067 17.067s17.067-7.641 17.067-17.067zM324.267 857.6c0-9.426-7.641-17.067-17.067-17.067s-17.067 7.641-17.067 17.067c0 9.426 7.641 17.067 17.067 17.067s17.067-7.641 17.067-17.067zM426.667 857.6c0-9.426-7.641-17.067-17.067-17.067s-17.067 7.641-17.067 17.067c0 9.426 7.641 17.067 17.067 17.067s17.067-7.641 17.067-17.067zM324.267 755.2c0-9.426-7.641-17.067-17.067-17.067s-17.067 7.641-17.067 17.067c0 9.426 7.641 17.067 17.067 17.067s17.067-7.641 17.067-17.067zM426.667 755.2c0-9.426-7.641-17.067-17.067-17.067s-17.067 7.641-17.067 17.067c0 9.426 7.641 17.067 17.067 17.067s17.067-7.641 17.067-17.067zM477.867 806.4c0-9.426-7.641-17.067-17.067-17.067s-17.067 7.641-17.067 17.067c0 9.426 7.641 17.067 17.067 17.067s17.067-7.641 17.067-17.067zM580.267 806.4c0-9.426-7.641-17.067-17.067-17.067s-17.067 7.641-17.067 17.067c0 9.426 7.641 17.067 17.067 17.067s17.067-7.641 17.067-17.067zM529.067 857.6c0-9.426-7.641-17.067-17.067-17.067s-17.067 7.641-17.067 17.067c0 9.426 7.641 17.067 17.067 17.067s17.067-7.641 17.067-17.067zM631.467 857.6c0-9.426-7.641-17.067-17.067-17.067s-17.067 7.641-17.067 17.067c0 9.426 7.641 17.067 17.067 17.067s17.067-7.641 17.067-17.067zM529.067 755.2c0-9.426-7.641-17.067-17.067-17.067s-17.067 7.641-17.067 17.067c0 9.426 7.641 17.067 17.067 17.067s17.067-7.641 17.067-17.067zM631.467 755.2c0-9.426-7.641-17.067-17.067-17.067s-17.067 7.641-17.067 17.067c0 9.426 7.641 17.067 17.067 17.067s17.067-7.641 17.067-17.067zM682.667 806.4c0-9.426-7.641-17.067-17.067-17.067s-17.067 7.641-17.067 17.067c0 9.426 7.641 17.067 17.067 17.067s17.067-7.641 17.067-17.067zM785.067 806.4c0-9.426-7.641-17.067-17.067-17.067s-17.067 7.641-17.067 17.067c0 9.426 7.641 17.067 17.067 17.067s17.067-7.641 17.067-17.067zM733.867 857.6c0-9.426-7.641-17.067-17.067-17.067s-17.067 7.641-17.067 17.067c0 9.426 7.641 17.067 17.067 17.067s17.067-7.641 17.067-17.067zM836.267 857.6c0-9.426-7.641-17.067-17.067-17.067s-17.067 7.641-17.067 17.067c0 9.426 7.641 17.067 17.067 17.067s17.067-7.641 17.067-17.067zM733.867 755.2c0-9.426-7.641-17.067-17.067-17.067s-17.067 7.641-17.067 17.067c0 9.426 7.641 17.067 17.067 17.067s17.067-7.641 17.067-17.067zM836.267 755.2c0-9.426-7.641-17.067-17.067-17.067s-17.067 7.641-17.067 17.067c0 9.426 7.641 17.067 17.067 17.067s17.067-7.641 17.067-17.067zM887.467 806.4c0-9.426-7.641-17.067-17.067-17.067s-17.067 7.641-17.067 17.067c0 9.426 7.641 17.067 17.067 17.067s17.067-7.641 17.067-17.067zM938.667 857.6c0-9.426-7.641-17.067-17.067-17.067s-17.067 7.641-17.067 17.067c0 9.426 7.641 17.067 17.067 17.067s17.067-7.641 17.067-17.067zM938.667 755.2c0-9.426-7.641-17.067-17.067-17.067s-17.067 7.641-17.067 17.067c0 9.426 7.641 17.067 17.067 17.067s17.067-7.641 17.067-17.067zM418.219 430.933h187.563c32.99 0 59.819 26.829 59.819 59.819v25.515c0 9.438-7.629 17.067-17.067 17.067s-17.067-7.629-17.067-17.067v-25.515c0-14.165-11.52-25.685-25.685-25.685h-187.563c-14.165 0-25.685 11.52-25.685 25.685v25.515c0 9.438-7.629 17.067-17.067 17.067s-17.067-7.629-17.067-17.067v-25.515c0-32.99 26.829-59.819 59.819-59.819z" />
<glyph unicode="&#xe901;" d="M801.528 155.976l-36.28 217.182h-0.106c-5.038 29.368-25.228 59.78-59.602 69.404-0.424 0.12-0.848 0.212-1.284 0.274l-84.646 12.702c-0.518 0.078-1.624 0.12-2.154 0.12-5.354 0-9.87-3.992-10.522-9.31-4.506-36.596-34.764-65.33-73.7-73.19h-42.482c-38.94 7.86-69.198 36.59-73.694 73.19-0.664 5.472-5.592 9.588-10.792 9.304-0.622 0.036-1.232-0.016-1.884-0.114l-84.646-12.702c-0.434-0.062-0.86-0.156-1.284-0.274-34.376-9.624-54.566-40.038-59.602-69.404h-0.106l-36.28-217.182c-7.506-39.438 22.73-75.976 62.876-75.976h453.32c40.146 0 70.38 36.538 62.868 75.976z" />
<glyph unicode="&#xe902;" d="M512 466.26c-37.040 0-70.644 15.894-95.438 41.582-0.018-15.396-0.578-37.616-4.66-53.83 2.678-1.636 4.756-4.324 5.16-7.666 5.292-43.058 46.102-75.522 94.938-75.522 48.826 0 89.636 32.47 94.938 75.522 0.412 3.348 2.444 6.030 5.162 7.662-4.082 16.214-4.644 38.438-4.662 53.834-24.794-25.688-58.4-41.582-95.438-41.582z" />
<glyph unicode="&#xe903;" d="M605.368 505.888c-24.588-24.49-57.318-39.628-93.368-39.628-37.040 0-70.644 15.894-95.438 41.582-0.018-15.396-0.578-37.616-4.66-53.83 2.678-1.636 4.756-4.324 5.16-7.666 2.34-19.032 11.634-35.978 25.48-48.982 63.846 8.992 136.31 72.036 162.826 108.524z" />
<glyph unicode="&#xe904;" d="M607.434 731.358h-180.266c-29.234 0-53.020-23.786-53.020-53.020v-63.624c0-81.858 61.842-148.454 137.85-148.454s137.85 66.596 137.85 148.454v74.228c0.002 23.388-19.020 42.416-42.414 42.416z" />
<glyph unicode="&#xe905;" d="M586.226 848h-137.85c-19.944 0-36.71-13.834-41.224-32.408-36.502-4.64-64.814-35.892-64.814-73.632v-53.020c0-27.328 11.602-52.822 31.812-70.94v60.336c0 29.234 23.786 53.020 53.020 53.020h180.266c23.392 0 42.416-19.028 42.416-42.416v-70.928c20.214 18.114 31.812 43.608 31.812 70.928v63.624c-0.002 52.622-42.812 95.436-95.438 95.436z" />
<glyph unicode="&#xe906;" d="M704 80h-384c-8.836 0-16 7.164-16 16v208c0 8.836 7.164 16 16 16h384c8.836 0 16-7.164 16-16v-208c0-8.836-7.164-16-16-16z" />
<glyph unicode="&#xe907;" d="M1008 48h-992c-8.844 0-16 7.164-16 16s7.156 16 16 16h992c8.844 0 16-7.164 16-16s-7.156-16-16-16z" />
<glyph unicode="&#xe908;" d="M544 192c0-17.673-14.327-32-32-32s-32 14.327-32 32c0 17.673 14.327 32 32 32s32-14.327 32-32z" />
<glyph unicode="&#xe909;" glyph-name="facebook" d="M0 960v-1024h545.342v395.55h-133.311v161.474h133.311v135.61c0 98.625 79.951 178.576 178.576 178.576h139.367v-145.202h-99.724c-31.338 0-56.744-25.406-56.744-56.744v-112.242h153.963l-21.279-161.474h-132.684v-395.548h317.183v1024h-1024z" />
<glyph unicode="&#xe90a;" glyph-name="google-plus" d="M0 960v-1024h1024v1024h-1024zM596.946 404.922c-17.51-115.030-103.272-180.976-214.305-180.976-124.775 0-225.935 101.16-225.935 225.935 0 124.744 101.16 225.903 225.935 225.903 60.357 0 113.244-21.539 151.738-58.928l-64.84-64.84c-21.959 22.123-52.010 33.915-86.898 33.915-73.448 0-132.994-62.631-132.994-136.048 0-73.482 59.546-134.295 132.994-134.295 61.56 0 108.177 29.756 121.625 89.334h-121.625v90.732h213.754c2.566-14.619 3.865-29.918 3.865-45.77-0.002-15.724-1.139-30.7-3.314-44.961zM868.262 433.053h-79.167v-79.133h-56.232v79.133h-79.167v56.266h79.167v79.167h56.232v-79.167h79.167v-56.266z" />
<glyph unicode="&#xe90b;" glyph-name="magnifying-glass" d="M1015.031-11.778l-248.848 248.848c66.753 76.743 107.168 176.873 107.168 286.311 0 240.901-195.945 436.619-436.619 436.619-240.901 0-436.619-195.945-436.619-436.619s195.945-436.619 436.619-436.619c109.439 0 209.568 40.415 286.311 107.168l248.848-248.848c5.903-5.903 13.85-9.082 21.57-9.082s15.667 2.952 21.57 9.082c11.807 11.807 11.807 31.333 0 43.14zM61.19 523.381c0 207.071 168.472 375.315 375.315 375.315 207.071 0 375.315-168.472 375.315-375.315s-168.245-375.542-375.315-375.542c-206.843 0-375.315 168.472-375.315 375.542z" />
<glyph unicode="&#xe90c;" glyph-name="menu" d="M38.642 699.17h946.717c21.33 0 38.642 17.311 38.642 38.642s-17.311 38.642-38.642 38.642h-946.717c-21.33 0-38.642-17.311-38.642-38.642s17.311-38.642 38.642-38.642zM38.642 409.358h946.717c21.33 0 38.642 17.311 38.642 38.642s-17.311 38.642-38.642 38.642h-946.717c-21.33 0-38.642-17.311-38.642-38.642s17.311-38.642 38.642-38.642zM38.642 119.547h946.717c21.33 0 38.642 17.311 38.642 38.642s-17.311 38.642-38.642 38.642h-946.717c-21.33 0-38.642-17.311-38.642-38.642s17.311-38.642 38.642-38.642z" />
<glyph unicode="&#xe90d;" d="M32 840h960v-544h-960v544z" />
<glyph unicode="&#xe90e;" d="M128 856v-128c0-35.346 28.654-64 64-64s64 28.654 64 64v128h-128z" />
<glyph unicode="&#xe90f;" d="M0 792v-61.25c0-33.426 24.438-63.278 57.714-66.45 38.172-3.64 70.286 26.28 70.286 63.7v128h-64c-35.346 0-64-28.654-64-64z" />
<glyph unicode="&#xe910;" d="M384 856v-128c0-35.346 28.654-64 64-64s64 28.654 64 64v128h-128z" />
<glyph unicode="&#xe911;" d="M256 856v-128c0-35.346 28.654-64 64-64s64 28.654 64 64v128h-128z" />
<glyph unicode="&#xe912;" d="M640 856v-128c0-35.346 28.654-64 64-64s64 28.654 64 64v128h-128z" />
<glyph unicode="&#xe913;" d="M512 856v-128c0-35.346 28.654-64 64-64s64 28.654 64 64v128h-128z" />
<glyph unicode="&#xe914;" d="M896 856v-125.25c0-33.426 24.438-63.278 57.714-66.45 38.172-3.64 70.286 26.28 70.286 63.7v64c0 35.346-28.654 64-64 64h-64z" />
<glyph unicode="&#xe915;" d="M768 856v-128c0-35.346 28.654-64 64-64s64 28.654 64 64v128h-128z" />
<glyph unicode="&#xe916;" d="M1008 264h-992c-8.844 0-16 7.156-16 16s7.156 16 16 16h992c8.844 0 16-7.156 16-16s-7.156-16-16-16z" />
<glyph unicode="&#xe917;" d="M736 56h-65.876l-14.248 113.984c-1 8.008-7.812 14.016-15.876 14.016h-256c-8.062 0-14.876-6.008-15.876-14.016l-14.246-113.984h-65.878c-8.844 0-16-7.164-16-16s7.156-16 16-16h448c8.844 0 16 7.164 16 16s-7.156 16-16 16z" />
<glyph unicode="&#xe918;" d="M528 600h-32c-8.844 0-16 7.164-16 16s7.156 16 16 16h32c8.844 0 16-7.164 16-16s-7.156-16-16-16z" />
<glyph unicode="&#xe919;" d="M528 472h-32c-8.844 0-16 7.164-16 16s7.156 16 16 16h32c8.844 0 16-7.164 16-16s-7.156-16-16-16z" />
<glyph unicode="&#xe91a;" d="M528 408h-32c-8.844 0-16 7.164-16 16s7.156 16 16 16h32c8.844 0 16-7.164 16-16s-7.156-16-16-16z" />
<glyph unicode="&#xe91b;" d="M528 344h-32c-8.844 0-16 7.164-16 16s7.156 16 16 16h32c8.844 0 16-7.164 16-16s-7.156-16-16-16z" />
<glyph unicode="&#xe91c;" d="M528 536h-32c-8.844 0-16 7.164-16 16s7.156 16 16 16h32c8.844 0 16-7.164 16-16s-7.156-16-16-16z" />
<glyph unicode="&#xe91d;" d="M768 600h-176c-8.844 0-16 7.164-16 16s7.156 16 16 16h176c8.844 0 16-7.164 16-16s-7.156-16-16-16z" />
<glyph unicode="&#xe91e;" d="M816 472h-224c-8.844 0-16 7.164-16 16s7.156 16 16 16h224c8.844 0 16-7.164 16-16s-7.156-16-16-16z" />
<glyph unicode="&#xe91f;" d="M912 408h-320c-8.844 0-16 7.164-16 16s7.156 16 16 16h320c8.844 0 16-7.164 16-16s-7.156-16-16-16z" />
<glyph unicode="&#xe920;" d="M752 344h-160c-8.844 0-16 7.164-16 16s7.156 16 16 16h160c8.844 0 16-7.164 16-16s-7.156-16-16-16z" />
<glyph unicode="&#xe921;" d="M832 536h-240c-8.844 0-16 7.164-16 16s7.156 16 16 16h240c8.844 0 16-7.164 16-16s-7.156-16-16-16z" />
<glyph unicode="&#xe922;" d="M960 152h-896c-35.346 0-64 28.654-64 64v80h1024v-80c0-35.346-28.654-64-64-64z" />
<glyph unicode="&#xe923;" d="M960 872h-896c-35.296 0-64-28.71-64-64v-544h1024v544c0 35.29-28.704 64-64 64zM32 296v512c0 17.648 14.36 32 32 32h896c17.64 0 32-14.352 32-32v-512h-960z" />
<glyph unicode="&#xe924;" d="M352 360h-160c-8.844 0-16 7.164-16 16s7.156 16 16 16h160c8.844 0 16-7.164 16-16s-7.156-16-16-16z" />
<glyph unicode="&#xe925;" d="M384 376c0-17.673-14.327-32-32-32s-32 14.327-32 32c0 17.673 14.327 32 32 32s32-14.327 32-32z" />
<glyph unicode="&#xe926;" d="M369.14 551.96l-224 16c-5.11 0.328-10.266-1.82-13.562-5.876s-4.39-9.46-2.968-14.484l32-112c1.968-6.866 8.25-11.6 15.39-11.6h160c26.468 0 48 21.532 48 48v64c0 8.39-6.484 15.36-14.86 15.96z" />
<glyph unicode="&#xe927;" d="M384 568h-234.332l-6.37 20.704c-0.084 0.27-0.292 0.454-0.39 0.716-0.39 1.072-0.994 1.976-1.592 2.928-0.522 0.83-0.96 1.684-1.612 2.392-0.678 0.74-1.5 1.266-2.308 1.868-0.854 0.636-1.646 1.302-2.606 1.758-0.812 0.384-1.694 0.538-2.574 0.784-1.148 0.324-2.256 0.644-3.466 0.7-0.264 0.012-0.484 0.15-0.75 0.15h-32c-8.844 0-16-7.164-16-16s7.156-16 16-16h20.178l60.524-196.704c2.126-6.882 8.454-11.304 15.296-11.304 1.546 0 3.14 0.234 4.704 0.718 8.454 2.594 13.188 11.546 10.594 19.992l-47.782 155.298h224.486c8.844 0 16 7.164 16 16s-7.156 16-16 16z" />
<glyph unicode="&#xe928;" d="M208 376c0-17.673-14.327-32-32-32s-32 14.327-32 32c0 17.673 14.327 32 32 32s32-14.327 32-32z" />
<glyph unicode="&#xe929;" d="M0 960h1024v-1024h-1024v1024z" />
<glyph unicode="&#xe92a;" d="M360.861 101.669c-167.123 69.837-275.911 268.862-206.725 470.999 68.44 199.957 289.835 304.672 489.183 230.644 199.915-74.239 298.794-294.828 221.292-492.574-80.236-204.723-295.342-277.155-456.623-226.080 12.057 29.779 25.777 59.162 35.827 89.75 10.093 30.72 16.528 62.64 24.098 92.208 6.516-5.483 13.064-11.295 19.921-16.715 35.639-28.165 75.958-30.9 118.2-20.744 44.887 10.792 80.36 36.243 106.629 73.655 44.429 63.274 60.108 134.859 49.37 210.192-11.104 77.897-57.227 134.268-129.536 162.654-108.947 42.768-212.23 28.37-301.694-50.015-68.806-60.285-91.936-162.485-58.841-242.049 11.471-27.579 29.599-49.224 57.025-62.229 13.9-6.59 19.8-3.903 23.822 10.615 0.299 1.081 0.663 2.146 1.058 3.195 7.703 20.312 5.905 37.012-7.804 56.621-24.981 35.74-20.526 77.113-8.473 116.753 22.856 75.171 90.017 125.328 168.781 126.056 21.099 0.195 42.818-1.613 63.251-6.599 60.777-14.828 100.020-61.831 103.952-124.15 3.155-49.976-4.656-98.526-26.384-144.161-10.758-22.593-24.957-42.683-46.089-56.904-19.852-13.358-41.559-18.742-65.114-12.587-32.453 8.48-50.875 38.086-42.667 70.57 8.507 33.67 19.515 66.712 27.86 100.416 3.528 14.255 5.381 29.736 3.934 44.256-3.948 39.548-41.314 57.991-76.245 38.683-24.467-13.524-36.248-36.129-41.712-62.283-5.629-26.945-2.903-53.502 5.865-79.629 1.762-5.251 2.022-11.738 0.78-17.153-15.87-69.203-32.844-138.164-47.873-207.548-4.386-20.247-3.573-41.629-5.031-62.499-0.276-3.995-0.038-8.031-0.038-13.345z" />
<glyph unicode="&#xe92b;" d="M1006.933 686.933h-34.987c-3.772 53.043-24.832 101.274-57.702 139.162l19.439 19.439c6.673 6.673 6.673 17.459 0 24.132s-17.459 6.673-24.132 0l-19.439-19.439c-37.888 32.87-86.135 53.931-139.162 57.702v35.004c0 9.438-7.646 17.067-17.067 17.067s-17.067-7.629-17.067-17.067v-35.004c-53.043-3.772-101.274-24.832-139.162-57.702l-19.439 19.439c-6.673 6.673-17.459 6.673-24.132 0s-6.673-17.459 0-24.132l19.439-19.439c-32.87-37.888-53.931-86.135-57.702-139.162h-35.021c-9.421 0-17.067-7.629-17.067-17.067s7.646-17.067 17.067-17.067h35.004c3.772-53.043 24.832-101.274 57.702-139.162l-19.439-19.439c-6.673-6.673-6.673-17.459 0-24.132 3.345-3.345 7.697-5.001 12.066-5.001s8.738 1.673 12.066 5.001l19.439 19.439c37.888-32.87 86.135-53.931 139.162-57.702v-35.004c0-9.438 7.646-17.067 17.067-17.067s17.067 7.629 17.067 17.067v35.004c53.043 3.772 101.274 24.832 139.162 57.702l20.446-20.446c3.328-3.328 7.697-5.001 12.066-5.001s8.738 1.673 12.066 5.001c6.673 6.673 6.673 17.459 0 24.132l-20.446 20.446c32.87 37.888 53.931 86.135 57.702 139.162h35.004c9.421 0 17.067 7.629 17.067 17.067s-7.629 17.067-17.067 17.067zM733.867 465.067c-112.93 0-204.8 91.87-204.8 204.8s91.887 204.8 204.8 204.8 204.8-91.87 204.8-204.8-91.87-204.8-204.8-204.8z" />
<glyph unicode="&#xe92c;" d="M733.867 738.133c-37.649 0-68.267-30.618-68.267-68.267s30.618-68.267 68.267-68.267 68.267 30.618 68.267 68.267-30.618 68.267-68.267 68.267zM733.867 635.733c-18.825 0-34.133 15.309-34.133 34.133s15.309 34.133 34.133 34.133 34.133-15.309 34.133-34.133-15.309-34.133-34.133-34.133z" />
<glyph unicode="&#xe92d;" d="M638.413 139.332l-27.221 12.083c12.902 33.894 20.275 70.485 20.275 108.851 0 33.246-5.478 65.212-15.292 95.215l21.47 8.346c8.789 3.413 13.141 13.295 9.728 22.084-3.396 8.789-13.227 13.175-22.084 9.711l-21.623-8.397c-28.74 62.976-78.012 114.534-139.349 146.125l12.083 27.187c3.823 8.619-0.051 18.705-8.67 22.528-8.636 3.806-18.688-0.068-22.528-8.67l-12.1-27.221c-33.877 12.902-70.468 20.292-108.834 20.292-33.246 0-65.195-5.478-95.215-15.292l-8.346 21.47c-3.413 8.789-13.329 13.158-22.084 9.711-8.789-3.396-13.141-13.295-9.728-22.084l8.397-21.623c-62.976-28.74-114.517-78.012-146.108-139.349l-27.187 12.083c-8.619 3.806-18.688-0.068-22.528-8.67-3.823-8.619 0.051-18.705 8.67-22.528l27.221-12.083c-12.902-33.894-20.292-70.485-20.292-108.834 0-33.246 5.478-65.212 15.292-95.215l-21.47-8.346c-8.789-3.413-13.141-13.295-9.728-22.084 2.628-6.758 9.079-10.889 15.923-10.889 2.048 0 4.147 0.358 6.178 1.161l21.623 8.397c28.74-62.976 78.012-114.534 139.349-146.125l-12.083-27.187c-3.823-8.619 0.051-18.705 8.67-22.528 2.236-0.99 4.591-1.451 6.912-1.451 6.537 0 12.783 3.789 15.616 10.138l12.1 27.221c33.877-12.919 70.468-20.292 108.817-20.292 33.246 0 65.195 5.478 95.215 15.292l8.346-21.47c2.628-6.758 9.079-10.889 15.906-10.889 2.065 0 4.147 0.358 6.178 1.161 8.789 3.396 13.141 13.295 9.728 22.084l-8.397 21.623c62.976 28.74 114.517 78.012 146.108 139.349l27.187-12.083c2.253-1.007 4.608-1.468 6.929-1.468 6.537 0 12.783 3.789 15.616 10.138 3.823 8.602-0.068 18.688-8.67 22.528zM324.267 533.333c33.434 0 65.331-6.332 94.976-17.374l-83.797-188.553c-3.652 0.597-7.356 1.126-11.179 1.126-37.649 0-68.267-30.618-68.267-68.267 0-2.714 0.495-5.291 0.802-7.936l-192.666-74.923c-8.346 26.146-12.937 53.965-12.937 82.859 0 150.562 122.505 273.067 273.067 273.067zM292.591 247.774c-0.017 0.051 0 0.102-0.034 0.154-0.017 0.017-0.034 0.034-0.051 0.068-1.468 3.823-2.372 7.936-2.372 12.271 0 18.825 15.309 34.133 34.133 34.133 4.762 0 9.284-0.99 13.414-2.765 0.154-0.068 0.256-0.222 0.41-0.29 0.068-0.034 0.137-0.017 0.205-0.034 11.827-5.376 20.105-17.237 20.105-31.044 0-18.825-15.309-34.133-34.133-34.133-14.404 0-26.675 8.994-31.676 21.641zM76.749 145.698l192.29 74.786c12.407-17.186 32.478-28.484 55.228-28.484 2.714 0 5.291 0.495 7.936 0.802l74.923-192.666c-26.146-8.346-53.965-12.937-82.859-12.937-109.619 0-204.1 65.075-247.518 158.498zM438.852 12.732l-74.786 192.29c17.169 12.425 28.467 32.478 28.467 55.245 0 21.589-10.274 40.636-25.958 53.163l83.9 188.757c87.159-45.67 146.859-136.892 146.859-241.92 0-109.619-65.058-204.1-158.481-247.535z" />
<glyph unicode="&#xe92e;" glyph-name="shopping-cart" d="M322.2 362.6h577.6l102.2 364.8h-150.4l-54 166.8-225.2-73 30.8-93.8h-10.6l-55.6 166.8-225.2-73 30.8-93.8h-120.4l-25 100c-12.6 50-56.2 85.4-106.4 85.4h-68.8v-41.8h68.8c31.2 0 58.4-20.8 66.8-52.2l110.6-432.8c-22.8-16.4-37.8-43.2-37.8-73.8 0-50 41.8-91.8 91.8-91.8h563v41.8h-563c-27.2 0-50 23-50 50 0 27.4 23 50.4 50 50.4zM770.6 842.2l37.6-112.6h-162.6l-23 64.6 148 48zM510 842.2l37.6-112.6h-162.6l-23 64.6 148 48zM947.8 687.8l-79.2-283.6h-563l-73 283.6h715.2zM701.8 158.2c-48 0-87.6-39.6-87.6-87.6s39.6-87.6 87.6-87.6c50 0 87.6 39.6 87.6 87.6s-39.6 87.6-87.6 87.6zM701.8 22.6c-27.2 0-48 23-48 48 0 27.2 23 48 48 48 27.2 0 48-20.8 48-48s-23-48-48-48zM380.6 158.2c-48 0-87.6-39.6-87.6-87.6s39.6-87.6 87.6-87.6c48 0 87.6 39.6 87.6 87.6s-39.6 87.6-87.6 87.6zM380.6 22.6c-27.2 0-48 23-48 48 0 27.2 23 48 48 48s48-20.8 48-48c0-27.2-23-48-48-48z" />
<glyph unicode="&#xe92f;" d="M0 960h1024v-1024h-1024v1024z" />
<glyph unicode="&#xe930;" d="M135.663 200.934c68.15-43.222 148.99-68.235 235.648-68.235 243.454 0 440.805 197.373 440.805 440.805 0 6.078-0.128 12.111-0.362 18.126 8.806 6.93 63.267 50.581 76.616 78.643 0 0-44.227-18.38-87.512-22.71-0.085 0-0.191-0.020-0.276-0.020 0 0 0.085 0.043 0.234 0.148 3.988 2.665 59.748 40.622 67.298 85.849 0 0-31.282-16.697-75.081-31.304-7.251-2.409-14.841-4.777-22.667-6.972-28.233 30.131-68.363 48.938-112.909 48.938-85.444 0-154.682-69.217-154.682-154.596 0-12.048 1.386-23.775 4.009-35.034-11.94 0.49-193.769 10.684-317.468 160.483 0 0-73.929-100.926 44.056-204.707 0 0-35.866 1.429-66.808 19.917 0 0-11.365-122.269 122.249-153.531 0 0-26.291-9.958-68.235-2.858 0 0 23.456-98.793 142.166-108.026 0 0-93.87-84.799-227.123-64.903l0.043-0.011z" />
<glyph unicode="&#xe931;" d="M853.274-64h-682.549c-26.041 0-47.139 21.098-47.139 47.139v929.721c0 26.041 21.098 47.139 47.139 47.139h682.549c26.041 0 47.139-21.098 47.139-47.139v-929.721c0-26.041-21.098-47.139-47.139-47.139z" />
<glyph unicode="&#xe932;" d="M853.274 960h-682.549c-26.041 0-47.139-21.098-47.139-47.139v-164.723h776.828v164.723c0 26.041-21.098 47.139-47.139 47.139z" />
<glyph unicode="&#xe933;" d="M388.414 924.69h247.172v-141.241h-247.172v141.241z" />
<glyph unicode="&#xe934;" d="M812.138 342.069c0-165.762-134.376-300.138-300.138-300.138s-300.138 134.376-300.138 300.138c0 165.762 134.376 300.138 300.138 300.138s300.138-134.376 300.138-300.138z" />
<glyph unicode="&#xe935;" d="M741.517 342.069c0-126.759-102.758-229.517-229.517-229.517s-229.517 102.758-229.517 229.517c0 126.759 102.758 229.517 229.517 229.517s229.517-102.758 229.517-229.517z" />
<glyph unicode="&#xe936;" d="M728.046 342.069c-41.966-53.707-107.22-88.276-180.736-88.276h-52.966c-59.551 0-112.040-29.484-144.013-74.593 41.49-41.172 98.586-66.648 161.668-66.648 126.764 0 229.517 102.753 229.517 229.517 0 5.985-9.004 5.703-13.471 0z" />
<glyph unicode="&#xe937;" d="M369.611 395.034c-2.631 0-5.314 0.583-7.839 1.836-8.739 4.343-12.288 14.936-7.962 23.676 30.067 60.487 90.677 98.074 158.19 98.074 9.746 0 17.655-7.892 17.655-17.655s-7.91-17.655-17.655-17.655c-54.025 0-102.524-30.067-126.57-78.477-3.090-6.215-9.34-9.799-15.819-9.799z" />
<glyph unicode="&#xe938;" d="M370.759 359.724c0-9.751-7.904-17.655-17.655-17.655s-17.655 7.904-17.655 17.655c0 9.751 7.904 17.655 17.655 17.655s17.655-7.904 17.655-17.655z" />
<glyph unicode="&#xe939;" d="M706.207 271.448c0-9.751-7.904-17.655-17.655-17.655s-17.655 7.904-17.655 17.655c0 9.751 7.904 17.655 17.655 17.655s17.655-7.904 17.655-17.655z" />
<glyph unicode="&#xe93a;" d="M441.379 218.483c0-9.751-7.904-17.655-17.655-17.655s-17.655 7.904-17.655 17.655c0 9.751 7.904 17.655 17.655 17.655s17.655-7.904 17.655-17.655z" />
<glyph unicode="&#xe93b;" d="M494.345 165.517c0-9.751-7.904-17.655-17.655-17.655s-17.655 7.904-17.655 17.655c0 9.751 7.904 17.655 17.655 17.655s17.655-7.904 17.655-17.655z" />
<glyph unicode="&#xe93c;" d="M547.31 218.483c0-9.751-7.904-17.655-17.655-17.655s-17.655 7.904-17.655 17.655c0 9.751 7.904 17.655 17.655 17.655s17.655-7.904 17.655-17.655z" />
<glyph unicode="&#xe93d;" d="M653.241 218.483c0-9.751-7.904-17.655-17.655-17.655s-17.655 7.904-17.655 17.655c0 9.751 7.904 17.655 17.655 17.655s17.655-7.904 17.655-17.655z" />
<glyph unicode="&#xe93e;" d="M600.276 165.517c0-9.751-7.904-17.655-17.655-17.655s-17.655 7.904-17.655 17.655c0 9.751 7.904 17.655 17.655 17.655s17.655-7.904 17.655-17.655z" />
<glyph unicode="&#xe93f;" d="M300.138 854.069c0 29.255-23.711 52.966-52.966 52.966s-52.966-23.711-52.966-52.966c0-3.019 0.406-5.932 0.883-8.828-0.477-2.895-0.883-5.809-0.883-8.828 0-29.255 23.711-52.966 52.966-52.966s52.966 23.711 52.966 52.966c0 3.019-0.406 5.932-0.883 8.828 0.477 2.895 0.883 5.809 0.883 8.828z" />
<glyph unicode="&#xe940;" d="M300.138 854.069c0-29.252-23.713-52.966-52.966-52.966s-52.966 23.713-52.966 52.966c0 29.252 23.713 52.966 52.966 52.966s52.966-23.713 52.966-52.966z" />
<glyph unicode="&#xe941;" d="M812.138 854.069c0 29.255-23.711 52.966-52.966 52.966s-52.966-23.711-52.966-52.966c0-3.019 0.406-5.932 0.883-8.828-0.477-2.895-0.883-5.809-0.883-8.828 0-29.255 23.711-52.966 52.966-52.966s52.966 23.711 52.966 52.966c0 3.019-0.406 5.932-0.883 8.828 0.477 2.895 0.883 5.809 0.883 8.828z" />
<glyph unicode="&#xe942;" d="M812.138 854.069c0-29.252-23.713-52.966-52.966-52.966s-52.966 23.713-52.966 52.966c0 29.252 23.713 52.966 52.966 52.966s52.966-23.713 52.966-52.966z" />
<glyph unicode="&#xe943;" d="M168.353 238.028c-4.443 0-8.886 1.701-12.271 5.085-196.226 196.244-196.226 515.558 0 711.801 6.786 6.786 17.755 6.786 24.541 0s6.786-17.755 0-24.541c-182.706-182.706-182.706-479.996 0-662.719 6.786-6.786 6.786-17.755 0-24.541-3.384-3.384-7.828-5.085-12.271-5.085z" />
<glyph unicode="&#xe944;" d="M855.613 238.028c-4.443 0-8.886 1.701-12.271 5.085-6.786 6.786-6.786 17.755 0 24.541 88.376 88.359 137.042 206.032 137.042 331.359s-48.666 243-137.042 331.359c-6.786 6.786-6.786 17.755 0 24.541s17.755 6.786 24.541 0c94.937-94.92 147.196-221.305 147.196-355.901s-52.276-260.981-147.196-355.901c-3.384-3.384-7.828-5.085-12.271-5.085z" />
<glyph unicode="&#xe945;" d="M242.011 311.669c-4.443 0-8.886 1.701-12.271 5.085-155.648 155.648-155.648 408.906 0 564.536 6.786 6.786 17.755 6.786 24.541 0s6.786-17.755 0-24.541c-142.11-142.11-142.11-373.343 0-515.454 6.786-6.786 6.786-17.755 0-24.541-3.402-3.402-7.845-5.085-12.271-5.085z" />
<glyph unicode="&#xe946;" d="M781.989 311.669c-4.443 0-8.886 1.701-12.271 5.085-6.786 6.786-6.786 17.755 0 24.541 142.11 142.11 142.11 373.343 0 515.454-6.786 6.786-6.786 17.755 0 24.541s17.755 6.786 24.541 0c155.648-155.648 155.648-408.906 0-564.536-3.384-3.402-7.828-5.085-12.271-5.085z" />
<glyph unicode="&#xe947;" d="M315.635 385.31c-4.443 0-8.886 1.701-12.271 5.085-55.643 55.643-86.294 129.736-86.294 208.636s30.651 152.975 86.294 208.636c6.786 6.786 17.755 6.786 24.541 0s6.786-17.755 0-24.541c-101.515-101.515-101.515-266.657 0-368.171 6.786-6.786 6.786-17.755 0-24.541-3.384-3.419-7.828-5.103-12.271-5.103z" />
<glyph unicode="&#xe948;" d="M708.365 385.31c-4.443 0-8.886 1.701-12.271 5.085-6.786 6.786-6.786 17.755 0 24.541 101.515 101.515 101.515 266.657 0 368.171-6.786 6.786-6.786 17.755 0 24.541s17.755 6.786 24.541 0c55.643-55.643 86.294-129.736 86.294-208.636s-30.651-152.975-86.294-208.636c-3.402-3.384-7.828-5.068-12.271-5.068z" />
<glyph unicode="&#xe949;" d="M616.136 595.525c0 57.518-46.618 104.136-104.136 104.136s-104.136-46.618-104.136-104.136c0-51.686 37.697-94.468 87.075-102.626-0.052-0.521-0.312-0.972-0.312-1.51v-538.034c0-9.598 7.758-17.356 17.356-17.356s17.356 7.758 17.356 17.356v538.034c0 0.538-0.26 0.989-0.312 1.51 49.395 8.157 87.109 50.922 87.109 102.626z" />
</font>
</defs>
</svg>
